<?xml version="1.0" encoding="utf-8"?>
<!-- Generator: Adobe Illustrator 16.0.0, SVG Export Plug-In . SVG Version: 6.00 Build 0)  -->
<!DOCTYPE svg PUBLIC "-//W3C//DTD SVG 1.1//EN" "http://www.w3.org/Graphics/SVG/1.1/DTD/svg11.dtd">
<svg version="1.1" id="Layer_1" xmlns="http://www.w3.org/2000/svg" xmlns:xlink="http://www.w3.org/1999/xlink" x="0px" y="0px"
	 width="128px" height="128px" viewBox="0 0 128 128" enable-background="new 0 0 128 128" xml:space="preserve">
<g>
	<g>
		<g>
			<path fill="#282D33" d="M58.03,104.485c-0.696,0-1.386-0.019-2.073-0.052l0.196-3.991c0.622,0.031,1.246,0.048,1.876,0.048
				V104.485z"/>
		</g>
		<g>
			<path fill="#282D33" d="M51.841,104.018c-1.371-0.208-2.75-0.491-4.097-0.841l1.002-3.866c1.216,0.314,2.459,0.57,3.695,0.758
				L51.841,104.018z M43.751,101.915c-1.304-0.487-2.596-1.047-3.84-1.665l1.777-3.577c1.121,0.557,2.285,1.061,3.46,1.499
				L43.751,101.915z M36.266,98.201c-1.173-0.739-2.323-1.55-3.418-2.408l2.464-3.145c0.989,0.775,2.027,1.507,3.085,2.175
				L36.266,98.201z M29.691,93.052c-1.003-0.966-1.966-1.991-2.862-3.047l3.047-2.585c0.809,0.954,1.679,1.881,2.585,2.753
				L29.691,93.052z M24.29,86.687c-0.788-1.145-1.525-2.341-2.192-3.557l3.502-1.921c0.602,1.099,1.268,2.179,1.98,3.214
				L24.29,86.687z M20.277,79.369c-0.542-1.279-1.023-2.601-1.432-3.928l3.818-1.176c0.369,1.199,0.804,2.392,1.292,3.547
				L20.277,79.369z M17.818,71.39c-0.271-1.36-0.477-2.751-0.611-4.136l3.976-0.384c0.121,1.25,0.307,2.508,0.553,3.735
				L17.818,71.39z M21.007,63.095l-3.995-0.012c0.004-1.394,0.077-2.797,0.218-4.17l3.974,0.408
				C21.077,60.563,21.011,61.833,21.007,63.095z M21.778,55.588l-3.913-0.804c0.28-1.361,0.633-2.723,1.05-4.047l3.811,1.199
				C22.35,53.13,22.031,54.36,21.778,55.588z M24.039,48.395l-3.67-1.578c0.549-1.275,1.169-2.537,1.844-3.751l3.492,1.941
				C25.094,46.104,24.534,47.244,24.039,48.395z M88.662,42.255c-0.701-1.04-1.464-2.055-2.268-3.018l3.068-2.558
				c0.889,1.066,1.733,2.191,2.511,3.342L88.662,42.255z M27.705,41.803l-3.278-2.284c0.794-1.139,1.655-2.251,2.561-3.304
				l3.03,2.603C29.2,39.77,28.421,40.774,27.705,41.803z M83.831,36.462c-0.895-0.878-1.847-1.719-2.827-2.501l2.491-3.123
				c1.086,0.867,2.141,1.799,3.132,2.771L83.831,36.462z M32.62,36.081l-2.752-2.895c1.005-0.956,2.072-1.872,3.171-2.724
				l2.446,3.158C34.492,34.389,33.528,35.217,32.62,36.081z M77.938,31.758c-1.055-0.679-2.156-1.312-3.274-1.878l1.809-3.563
				c1.238,0.628,2.459,1.329,3.629,2.082L77.938,31.758z M38.582,31.464l-2.112-3.39c1.178-0.734,2.409-1.417,3.657-2.027
				l1.755,3.589C40.755,30.187,39.646,30.802,38.582,31.464z M71.214,28.347c-1.167-0.449-2.375-0.842-3.587-1.168l1.04-3.857
				c1.345,0.362,2.685,0.799,3.98,1.297L71.214,28.347z M45.351,28.156l-1.376-3.75c1.302-0.478,2.646-0.894,3.996-1.237
				l0.984,3.872C47.738,27.35,46.525,27.725,45.351,28.156z M63.937,26.385c-1.237-0.2-2.5-0.337-3.751-0.41l0.23-3.988
				c1.387,0.08,2.785,0.232,4.156,0.454L63.937,26.385z M52.653,26.304l-0.579-3.953c1.371-0.201,2.771-0.333,4.162-0.393
				l0.172,3.991C55.154,26.003,53.89,26.123,52.653,26.304z"/>
		</g>
		<g>
			<path fill="#282D33" d="M90.694,45.635c-0.294-0.552-0.601-1.097-0.92-1.631l3.429-2.049c0.354,0.592,0.692,1.195,1.018,1.805
				L90.694,45.635z"/>
		</g>
	</g>
	<g>
		<polygon fill="#282D33" points="58.283,65.892 43.101,50.417 45.952,47.618 58.284,60.189 76.974,41.143 79.825,43.939 		"/>
	</g>
	<g>
		<g>
			<path fill="#282D33" d="M95.027,122.086H69.671l-0.024-1.973c-0.004-0.297-0.026-7.354,5.252-15.146
				c2.238-3.308,5.636-6.122,8.922-8.846c3.524-2.919,7.167-5.937,7.167-8.111v-1.537c0-5.27-4.247-9.557-9.468-9.557
				c-5.225,0-9.475,4.287-9.475,9.557H68.05c0-7.473,6.043-13.551,13.47-13.551c7.423,0,13.463,6.078,13.463,13.551v1.537
				c0,4.052-3.992,7.358-8.613,11.188c-3.07,2.544-6.244,5.174-8.163,8.009c-3.005,4.437-4.032,8.556-4.384,10.885h21.205V122.086z"
				/>
		</g>
		<g>
			<rect x="115.971" y="73.381" fill="#282D33" width="3.994" height="49.272"/>
		</g>
		<g>
			<polygon fill="#282D33" points="127.826,106.944 96.966,106.944 115.897,73.927 119.363,75.912 103.863,102.95 127.826,102.95 
							"/>
		</g>
	</g>
	<g>
		<g>
			<path fill="#282D33" d="M57.794,121.692C25.927,121.692,0,95.595,0,63.518C0,31.442,25.927,5.347,57.794,5.347
				c31.865,0,57.789,26.096,57.789,58.171h-3.994c0-29.873-24.133-54.176-53.794-54.176c-29.665,0-53.8,24.303-53.8,54.176
				c0,29.875,24.135,54.18,53.8,54.18V121.692z"/>
		</g>
		<g>
			<polygon fill="#282D33" points="112.44,65.904 96.883,50.24 99.717,47.425 112.44,60.236 125.166,47.425 128,50.24 			"/>
		</g>
	</g>
</g>
</svg>
